<?xml version="1.0" encoding="utf-8"?>
<!-- Generator: Adobe Illustrator 13.0.0, SVG Export Plug-In . SVG Version: 6.00 Build 14948)  -->
<!DOCTYPE svg PUBLIC "-//W3C//DTD SVG 1.1 Basic//EN" "http://www.w3.org/Graphics/SVG/1.1/DTD/svg11-basic.dtd">
<svg version="1.1" baseProfile="basic" id="Layer_1"
	 xmlns="http://www.w3.org/2000/svg" xmlns:xlink="http://www.w3.org/1999/xlink" x="0px" y="0px" width="120px" height="95px"
	 viewBox="0 0 120 95" xml:space="preserve">
<g opacity="0.25">
	<g>
		<path opacity="0.25" fill="#FFFFFF" d="M99.391,15.44c-13.283,13.082-22.494,8.117-40.513,6.406
			C49.916,9.798,10.024-11.135,1.702,11.862c12.884,10.722,27.381,13.967,27.315,32.935C28.964,59.885-9.136,75.762,7.274,87.329
			c22.752,13.44,52.113-4.091,76.919,2.788c27.313,7.57,35.976-2.862,34.173-26.391c-0.28-3.629-0.583-39.595-7.563-51.598
			C107.889,7.119,100.73,14.121,99.391,15.44z M30.334,80.631c-7.766,2.336-15.61,2.622-23.535,0.857
			C9.871,72.813,32.078,68.65,30.334,80.631z"/>
	</g>
	<g>
		<path opacity="0.25" fill="#FFFFFF" d="M99.391,15.44c-13.283,13.082-22.494,8.117-40.513,6.406
			C49.916,9.798,10.024-11.135,1.702,11.862c12.884,10.722,27.381,13.967,27.315,32.935C28.964,59.885-9.136,75.762,7.274,87.329
			c22.752,13.44,52.113-4.091,76.919,2.788c27.313,7.57,35.976-2.862,34.173-26.391c-0.28-3.629-0.583-39.595-7.563-51.598
			C107.889,7.119,100.73,14.121,99.391,15.44z M30.334,80.631c-7.766,2.336-15.61,2.622-23.535,0.857
			C9.871,72.813,32.078,68.65,30.334,80.631z"/>
	</g>
</g>
<g opacity="0.5">
	<g>
		<path opacity="0.5" fill="#FFFFFF" d="M99.391,15.44c-13.283,13.082-22.494,8.117-40.513,6.406
			C49.916,9.798,10.024-11.135,1.702,11.862c2.187,1.82,4.419,3.421,6.619,4.924C8.983,15.587,9.884,14.558,11,13.89c6-6,16-5,21-1
			c8,8,15,21,11,32c-4,11-12.54,34.877-12.666,35.741c-7.766,2.336-15.61,2.622-23.535,0.857c0.718-2.029,2.49-3.807,4.75-5.192
			c-1.211-2.778-0.322-6.044,0.554-9.041C4.555,74.605-0.98,81.512,7.273,87.329c22.752,13.44,52.114-4.091,76.918,2.788
			c27.313,7.57,35.977-2.862,34.174-26.391c-0.28-3.629-0.583-39.595-7.563-51.598C107.889,7.119,100.73,14.121,99.391,15.44z"/>
	</g>
	<g>
		<path opacity="0.5" fill="#FFFFFF" d="M99.391,15.44c-13.283,13.082-22.494,8.117-40.513,6.406
			C49.916,9.798,10.024-11.135,1.702,11.862c2.187,1.82,4.419,3.421,6.619,4.924C8.983,15.587,9.884,14.558,11,13.89c6-6,16-5,21-1
			c8,8,15,21,11,32c-4,11-12.54,34.877-12.666,35.741c-7.766,2.336-15.61,2.622-23.535,0.857c0.718-2.029,2.49-3.807,4.75-5.192
			c-1.211-2.778-0.322-6.044,0.554-9.041C4.555,74.605-0.98,81.512,7.273,87.329c22.752,13.44,52.114-4.091,76.918,2.788
			c27.313,7.57,35.977-2.862,34.174-26.391c-0.28-3.629-0.583-39.595-7.563-51.598C107.889,7.119,100.73,14.121,99.391,15.44z"/>
	</g>
</g>
<g opacity="0.65">
	<g>
		<path opacity="0.65" fill="#FFFFFF" d="M6.799,81.488c0.718-2.029,2.49-3.807,4.75-5.192c-1.211-2.778,3.951-5.046,0.554-9.041
			C4.555,74.605-0.98,81.512,7.273,87.329c8.125,4.8,17.094,5.642,26.396,5.063c1.455-4.395-4.76-7.17-6.974-10.838
			C20.12,82.988,13.489,82.979,6.799,81.488z"/>
		<path opacity="0.65" fill="#FFFFFF" d="M1.702,11.862c2.187,1.82,4.419,3.421,6.619,4.924C11.5,18.25,9.885,14.559,11,13.89
			c5.417-5.417,14.082-5.119,19.396-2.068c7.854-0.071,2.077-4.581,3.188-6.863C20.334-0.148,6.268-0.754,1.702,11.862z"/>
		<path opacity="0.65" fill="#FFFFFF" d="M99.391,15.44c-11.154,10.986-19.438,9.245-32.479,7.392
			C85.5,33.625,94.207,67.809,105.223,91.941c10.807-2.455,14.359-12.354,13.146-28.215c-0.28-3.627-0.583-39.594-7.563-51.597
			C107.889,7.119,100.73,14.121,99.391,15.44z"/>
	</g>
</g>
</svg>
