<?xml version="1.0" encoding="utf-8"?>
<!-- Generator: Adobe Illustrator 13.0.0, SVG Export Plug-In . SVG Version: 6.00 Build 14948)  -->
<!DOCTYPE svg PUBLIC "-//W3C//DTD SVG 1.1 Basic//EN" "http://www.w3.org/Graphics/SVG/1.1/DTD/svg11-basic.dtd">
<svg version="1.1" baseProfile="basic" id="Layer_1"
	 xmlns="http://www.w3.org/2000/svg" xmlns:xlink="http://www.w3.org/1999/xlink" x="0px" y="0px" width="120px" height="95px"
	 viewBox="0 0 120 95" xml:space="preserve">
<g opacity="0.25">
	<g>
		<path opacity="0.25" fill="#FFFFFF" d="M99.391,10.44c-13.283,13.082-22.494,8.117-40.513,6.406
			C49.916,4.798,10.024-8.135,1.702,14.862c12.884,10.722,26.381,11.967,26.315,30.935C27.973,58.225-9.146,73.755,7.274,85.329
			c22.752,13.44,50.113-2.091,74.919,4.788c27.104,7.513,38.185-1.139,36.173-27.391c-0.28-3.629-0.583-39.596-7.563-51.599
			C107.889,6.119,100.73,9.121,99.391,10.44z M30.334,79.631c-7.766,2.336-15.61,1.622-23.535-0.143
			C10.188,69.919,32.221,66.67,30.334,79.631z"/>
	</g>
	<g>
		<path opacity="0.25" fill="#FFFFFF" d="M99.391,10.44c-13.283,13.082-22.494,8.117-40.513,6.406
			C49.916,4.798,10.024-8.135,1.702,14.862c12.884,10.722,26.381,11.967,26.315,30.935C27.973,58.225-9.146,73.755,7.274,85.329
			c22.752,13.44,50.113-2.091,74.919,4.788c27.104,7.513,38.185-1.139,36.173-27.391c-0.28-3.629-0.583-39.596-7.563-51.599
			C107.889,6.119,100.73,9.121,99.391,10.44z M30.334,79.631c-7.766,2.336-15.61,1.622-23.535-0.143
			C10.188,69.919,32.221,66.67,30.334,79.631z"/>
	</g>
</g>
<g opacity="0.5">
	<g>
		<path opacity="0.5" fill="#FFFFFF" d="M99.391,10.44c-13.283,13.082-22.494,8.117-40.513,6.406
			C49.916,4.798,10.024-8.135,1.702,14.862c2.187,1.82,4.419,1.421,6.619,2.924C8.983,16.587,9.884,15.558,11,14.89c6-6,16-7,21-3
			c8,8,14,21,10,32c-4,11-11.54,34.877-11.666,35.741c-7.766,2.336-15.61,1.622-23.535-0.143c0.718-2.029,2.49-4.807,4.75-6.192
			c-1.211-2.778-0.322-5.044,0.554-8.041C4.555,72.605-0.98,79.512,7.273,85.329c22.752,13.44,50.114-2.091,74.918,4.788
			c27.104,7.512,38.186-1.137,36.174-27.391c-0.28-3.629-0.583-39.596-7.563-51.599C107.889,6.119,100.73,9.121,99.391,10.44z"/>
	</g>
	<g>
		<path opacity="0.5" fill="#FFFFFF" d="M99.391,10.44c-13.283,13.082-22.494,8.117-40.513,6.406
			C49.916,4.798,10.024-8.135,1.702,14.862c2.187,1.82,4.419,1.421,6.619,2.924C8.983,16.587,9.884,15.558,11,14.89c6-6,16-7,21-3
			c8,8,14,21,10,32c-4,11-11.54,34.877-11.666,35.741c-7.766,2.336-15.61,1.622-23.535-0.143c0.718-2.029,2.49-4.807,4.75-6.192
			c-1.211-2.778-0.322-5.044,0.554-8.041C4.555,72.605-0.98,79.512,7.273,85.329c22.752,13.44,50.114-2.091,74.918,4.788
			c27.104,7.512,38.186-1.137,36.174-27.391c-0.28-3.629-0.583-39.596-7.563-51.599C107.889,6.119,100.73,9.121,99.391,10.44z"/>
	</g>
</g>
<g opacity="0.65">
	<g>
		<path opacity="0.65" fill="#FFFFFF" d="M6.799,79.488c0.718-2.029,2.49-4.807,4.75-6.192c-1.211-2.778,3.951-4.046,0.554-8.041
			C4.555,72.605-0.98,79.512,7.273,85.329c8.125,4.8,17.094,6.642,26.396,6.063c1.455-4.396-4.76-7.17-6.974-10.838
			C20.12,81.988,13.489,80.979,6.799,79.488z"/>
		<path opacity="0.65" fill="#FFFFFF" d="M1.702,14.862c2.187,1.82,4.419,1.421,6.619,2.924C11.5,19.25,9.885,15.559,11,14.89
			c5.417-5.417,14.082-7.119,19.396-4.068c7.854-0.071,2.077-4.581,3.188-6.863C20.334-1.148,6.268,2.246,1.702,14.862z"/>
		<path opacity="0.65" fill="#FFFFFF" d="M99.391,10.44c-11.154,10.986-19.438,9.245-32.479,7.392
			C85.5,28.625,92.207,67.809,103.223,91.941c10.809-2.455,16.359-13.354,15.146-29.215c-0.28-3.627-0.583-39.595-7.563-51.598
			C107.889,6.119,100.73,9.121,99.391,10.44z"/>
	</g>
</g>
</svg>
