<?xml version="1.0" encoding="utf-8"?>
<!-- Generator: Adobe Illustrator 13.0.0, SVG Export Plug-In . SVG Version: 6.00 Build 14948)  -->
<!DOCTYPE svg PUBLIC "-//W3C//DTD SVG 1.1 Basic//EN" "http://www.w3.org/Graphics/SVG/1.1/DTD/svg11-basic.dtd">
<svg version="1.1" baseProfile="basic" id="Layer_1"
	 xmlns="http://www.w3.org/2000/svg" xmlns:xlink="http://www.w3.org/1999/xlink" x="0px" y="0px" width="120px" height="95px"
	 viewBox="0 0 120 95" xml:space="preserve">
<g opacity="0.25">
	<g>
		<path opacity="0.25" fill="#FFFFFF" d="M97.391,18.44c-5.873,5.785-29.902-1.586-40.513-2.594
			C48.567,4.671,10.373-3.34,2.702,17.862c12.884,10.722,24.381,7.967,24.315,26.935C26.964,59.885-5.136,70.762,11.274,82.329
			c22.752,13.44,46.113-0.091,70.919,6.788c27.313,7.57,35.976-2.862,34.173-26.391c-0.28-3.629-0.583-35.595-7.563-47.598
			C105.889,10.119,98.73,17.121,97.391,18.44z M28.334,79.631c-7.766,2.336-9.61-1.378-17.535-3.143
			C13.871,67.813,30.078,67.65,28.334,79.631z"/>
	</g>
	<g>
		<path opacity="0.25" fill="#FFFFFF" d="M97.391,18.44c-5.873,5.785-29.902-1.586-40.513-2.594
			C48.567,4.671,10.373-3.34,2.702,17.862c12.884,10.722,24.381,7.967,24.315,26.935C26.964,59.885-5.136,70.762,11.274,82.329
			c22.752,13.44,46.113-0.091,70.919,6.788c27.313,7.57,35.976-2.862,34.173-26.391c-0.28-3.629-0.583-35.595-7.563-47.598
			C105.889,10.119,98.73,17.121,97.391,18.44z M28.334,79.631c-7.766,2.336-9.61-1.378-17.535-3.143
			C13.871,67.813,30.078,67.65,28.334,79.631z"/>
	</g>
</g>
<g opacity="0.5">
	<g>
		<path opacity="0.5" fill="#FFFFFF" d="M97.391,18.44c-5.873,5.785-29.902-1.586-40.513-2.594
			C48.567,4.671,10.373-3.34,2.702,17.862c2.187,1.82,4.419,3.421,6.619,4.924c0.662-1.199,1.563-2.228,2.679-2.896c6-6,13-12,18-8
			c8,8,15,21,11,32c-4,11-12.54,34.877-12.666,35.741c-7.766,2.336-9.61-1.378-17.535-3.143c0.718-2.029,2.49-3.807,4.75-5.192
			c-1.211-2.778-0.322-6.044,0.554-9.041c-7.548,7.351-13.083,14.257-4.83,20.074c22.752,13.44,46.114-0.091,70.918,6.788
			c27.313,7.57,35.977-2.862,34.174-26.391c-0.28-3.629-0.583-35.595-7.563-47.598C105.889,10.119,98.73,17.121,97.391,18.44z"/>
	</g>
	<g>
		<path opacity="0.5" fill="#FFFFFF" d="M97.391,18.44c-5.873,5.785-29.902-1.586-40.513-2.594
			C48.567,4.671,10.373-3.34,2.702,17.862c2.187,1.82,4.419,3.421,6.619,4.924c0.662-1.199,1.563-2.228,2.679-2.896c6-6,13-12,18-8
			c8,8,15,21,11,32c-4,11-12.54,34.877-12.666,35.741c-7.766,2.336-9.61-1.378-17.535-3.143c0.718-2.029,2.49-3.807,4.75-5.192
			c-1.211-2.778-0.322-6.044,0.554-9.041c-7.548,7.351-13.083,14.257-4.83,20.074c22.752,13.44,46.114-0.091,70.918,6.788
			c27.313,7.57,35.977-2.862,34.174-26.391c-0.28-3.629-0.583-35.595-7.563-47.598C105.889,10.119,98.73,17.121,97.391,18.44z"/>
	</g>
</g>
<g opacity="0.65">
	<g>
		<path opacity="0.65" fill="#FFFFFF" d="M10.799,76.488c0.718-2.029,2.49-3.807,4.75-5.192c-1.211-2.778,3.951-5.046,0.554-9.041
			c-7.548,7.351-13.083,14.257-4.83,20.074c8.125,4.8,11.094,5.642,20.396,5.063c1.455-4.395-4.76-3.17-6.974-6.838
			C18.12,81.988,17.489,77.979,10.799,76.488z"/>
		<path opacity="0.65" fill="#FFFFFF" d="M2.702,17.862c2.187,1.82,4.419,3.421,6.619,4.924C12.5,24.25,10.885,20.559,12,19.89
			c5.417-5.417,11.082-12.119,16.396-9.068c7.854-0.071,5.077-3.581,6.188-5.863C22,3.167,7.268,5.246,2.702,17.862z"/>
		<path opacity="0.65" fill="#FFFFFF" d="M97.391,18.44c-8.058,3.894-7.724,2.227-32.479-0.608
			C83.5,28.625,92.207,66.809,103.223,90.941c10.807-2.455,14.359-12.354,13.146-28.215c-0.28-3.627-0.583-35.594-7.563-47.597
			C105.889,10.119,98.73,17.121,97.391,18.44z"/>
	</g>
</g>
</svg>
