<?xml version="1.0" encoding="utf-8"?>
<!-- Generator: Adobe Illustrator 13.0.0, SVG Export Plug-In . SVG Version: 6.00 Build 14948)  -->
<!DOCTYPE svg PUBLIC "-//W3C//DTD SVG 1.1 Basic//EN" "http://www.w3.org/Graphics/SVG/1.1/DTD/svg11-basic.dtd">
<svg version="1.1" baseProfile="basic" id="Layer_1"
	 xmlns="http://www.w3.org/2000/svg" xmlns:xlink="http://www.w3.org/1999/xlink" x="0px" y="0px" width="120px" height="95px"
	 viewBox="0 0 120 95" xml:space="preserve">
<g opacity="0.25">
	<g>
		<path opacity="0.25" fill="#FFFFFF" d="M97.391,9.44c-13.283,13.082-20.492,3.117-38.513,1.406
			C51.863,1.415,8.076,0.248,1.702,17.862c12.884,10.722,26.381,6.967,26.315,25.935C27.973,56.225-9.146,65.755,7.274,77.329
			c22.752,13.44,50.113,3.909,74.919,10.788c27.104,7.513,38.185-1.139,36.173-27.391c-0.28-3.629-2.583-38.596-9.563-50.599
			C105.889,5.119,98.73,8.121,97.391,9.44z M30.334,77.631c-7.766,2.336-15.61-4.378-23.535-6.143
			C10.188,61.919,32.221,64.67,30.334,77.631z"/>
	</g>
	<g>
		<path opacity="0.25" fill="#FFFFFF" d="M97.391,9.44c-13.283,13.082-20.492,3.117-38.513,1.406
			C42.834,3.833,8.076,0.248,1.702,17.862c12.884,10.722,26.381,6.967,26.315,25.935C27.973,56.225-9.146,65.755,7.274,77.329
			c22.752,13.44,50.113,3.909,74.919,10.788c27.104,7.513,38.185-1.139,36.173-27.391c-0.28-3.629-2.583-38.596-9.563-50.599
			C105.889,5.119,98.73,8.121,97.391,9.44z M30.334,77.631c-7.766,2.336-15.61-4.378-23.535-6.143
			C10.188,61.919,32.221,64.67,30.334,77.631z"/>
	</g>
</g>
<g opacity="0.5">
	<g>
		<path opacity="0.5" fill="#FFFFFF" d="M97.391,9.44c-13.283,13.082-20.492,3.117-38.513,1.406
			C47.896,4.541,7.628,1.488,1.702,17.862c2.187,1.82,4.419,1.421,6.619,2.924C8.983,19.587,9.884,18.558,11,17.89c6-6,16-12,21-8
			c8,8,14,21,10,32c-4,11-11.54,34.877-11.666,35.741c-7.766,2.336-15.61-4.378-23.535-6.143c0.718-2.029,2.49-4.807,4.75-6.192
			c-1.211-2.778-0.322-2.044,0.554-5.041C4.555,67.605-0.98,71.512,7.273,77.329c22.752,13.44,50.114,3.909,74.918,10.788
			c27.104,7.512,38.186-1.137,36.174-27.391c-0.28-3.629-2.583-38.596-9.563-50.599C105.889,5.119,98.73,8.121,97.391,9.44z"/>
	</g>
	<g>
		<path opacity="0.5" fill="#FFFFFF" d="M97.391,9.44c-13.283,13.082-20.492,3.117-38.513,1.406
			C46.406,3.849,7.617,1.516,1.702,17.862c2.187,1.82,4.419,1.421,6.619,2.924C8.983,19.587,9.884,18.558,11,17.89c6-6,16-12,21-8
			c8,8,14,21,10,32c-4,11-11.54,34.877-11.666,35.741c-7.766,2.336-15.61-4.378-23.535-6.143c0.718-2.029,2.49-4.807,4.75-6.192
			c-1.211-2.778-0.322-2.044,0.554-5.041C4.555,67.605-0.98,71.512,7.273,77.329c22.752,13.44,50.114,3.909,74.918,10.788
			c27.104,7.512,38.186-1.137,36.174-27.391c-0.28-3.629-2.583-38.596-9.563-50.599C105.889,5.119,98.73,8.121,97.391,9.44z"/>
	</g>
</g>
<g opacity="0.65">
	<g>
		<path opacity="0.65" fill="#FFFFFF" d="M6.799,71.488c0.718-2.029,2.49-3.807,4.75-5.192c-1.211-2.778,3.951-2.046,0.554-6.041
			C4.555,67.605-0.98,71.512,7.273,77.329c8.125,4.8,17.094,7.642,26.396,7.063c1.455-4.396-4.76-2.17-6.974-5.838
			C20.12,79.988,13.489,72.979,6.799,71.488z"/>
		<path opacity="0.65" fill="#FFFFFF" d="M1.702,17.862c2.187,1.82,4.419,1.421,6.619,2.924C11.5,22.25,9.885,18.559,11,17.89
			c5.417-5.417,14.082-12.119,19.396-9.068c7.854-0.071,2.077-1.581,3.188-3.863C14.167,5.5,5.167,8.167,1.702,17.862z"/>
		<path opacity="0.65" fill="#FFFFFF" d="M97.391,9.44c-11.154,10.986-17.438,4.245-30.479,2.392
			C85.5,22.625,92.207,65.809,103.223,89.941c10.809-2.455,16.359-13.354,15.146-29.215c-0.28-3.627-2.583-38.595-9.563-50.598
			C105.889,5.119,98.73,8.121,97.391,9.44z"/>
	</g>
</g>
</svg>
