<?xml version="1.0" encoding="utf-8"?>
<!-- Generator: Adobe Illustrator 13.0.0, SVG Export Plug-In . SVG Version: 6.00 Build 14948)  -->
<!DOCTYPE svg PUBLIC "-//W3C//DTD SVG 1.1 Basic//EN" "http://www.w3.org/Graphics/SVG/1.1/DTD/svg11-basic.dtd">
<svg version="1.1" baseProfile="basic" id="Layer_1"
	 xmlns="http://www.w3.org/2000/svg" xmlns:xlink="http://www.w3.org/1999/xlink" x="0px" y="0px" width="600px" height="200px"
	 viewBox="0 0 600 200" xml:space="preserve">
<path fill="#999999" stroke="#000000" stroke-width="10" d="M582.188,181.111c0,6.188-5.16,11.203-11.526,11.203H27.15
	c-6.367,0-11.527-5.017-11.527-11.203V23.928c0-6.188,5.161-11.204,11.527-11.204h543.51c6.366,0,11.527,5.016,11.527,11.204
	V181.111L582.188,181.111z"/>
<rect x="112.95" y="43.989" fill="none" width="467.347" height="137.755"/>
<g>
	<path d="M203.663,77.572h-5.195c-1.322-3.678-3.601-7.401-6.836-11.169c-3.236-3.769-6.449-5.993-9.639-6.675
		c-1.367-0.318-3.271-0.511-5.708-0.579c-2.438-0.068-4.455-0.103-6.05-0.103h-14.082v37.393h9.98c2.506,0,4.785-0.296,6.836-0.889
		c2.051-0.592,3.919-1.731,5.605-3.418c1.048-1.048,2.107-2.894,3.179-5.537c1.07-2.643,1.766-4.944,2.085-6.904h5.195v40.469
		h-5.195c-0.273-1.914-0.969-4.317-2.085-7.212c-1.117-2.894-2.177-4.888-3.179-5.981c-1.504-1.641-3.281-2.769-5.332-3.384
		s-4.421-0.923-7.109-0.923h-9.98v27.959c0,2.917,0.216,5.229,0.649,6.938c0.433,1.709,1.241,3.02,2.427,3.931
		c1.139,0.866,2.7,1.436,4.683,1.709s4.683,0.41,8.101,0.41c1.595,0,3.509-0.022,5.742-0.068c2.232-0.045,4.192-0.182,5.879-0.41
		c1.914-0.228,3.702-0.569,5.366-1.025c1.663-0.455,2.905-1.116,3.726-1.982c2.188-2.232,4.648-5.64,7.383-10.22
		s4.534-8.009,5.4-10.288h4.99l-1.846,30.215h-90.986v-5.332c1.275-0.091,3.008-0.273,5.195-0.547s3.736-0.592,4.648-0.957
		c1.731-0.729,2.894-1.651,3.486-2.769c0.592-1.116,0.889-2.54,0.889-4.272V67.523c0-1.641-0.251-2.996-0.752-4.067
		c-0.502-1.07-1.709-2.039-3.623-2.905c-1.186-0.547-2.849-1.048-4.99-1.504c-2.143-0.455-3.76-0.752-4.854-0.889v-5.332h85.996
		V77.572z"/>
	<path d="M327.324,149.828h-59.13v-5.332c5.657-0.318,9.307-0.809,10.948-1.47c1.642-0.66,2.463-1.538,2.463-2.632
		c0-0.592-0.297-1.538-0.889-2.837c-0.593-1.299-1.413-2.791-2.461-4.477c-1.596-2.688-3.727-6.049-6.393-10.081
		s-5.435-8.19-8.306-12.474c-9.564,11.071-15.633,18.43-18.207,22.075c-2.575,3.646-3.862,6.062-3.862,7.246
		c0,0.639,0.103,1.174,0.308,1.606c0.205,0.434,0.74,0.854,1.606,1.265c0.638,0.365,1.731,0.707,3.281,1.025
		c1.549,0.319,3.387,0.57,5.515,0.752v5.332h-37.666v-5.332c1.961-0.137,3.524-0.342,4.688-0.615
		c1.163-0.273,2.314-0.66,3.456-1.162c2.646-1.23,4.995-2.791,7.048-4.683c2.053-1.891,4.175-4.09,6.365-6.597
		c3.188-3.601,6.786-7.68,10.793-12.237c4.007-4.558,8.221-9.412,12.639-14.563c-4.189-6.334-8.377-12.485-12.565-18.455
		s-7.739-11.051-10.652-15.243c-1.457-2.096-3.271-4.192-5.439-6.289c-2.168-2.096-4.44-3.6-6.813-4.512
		c-1.188-0.501-2.511-0.923-3.972-1.265c-1.461-0.342-3.219-0.581-5.273-0.718v-5.332h59.268v5.332
		c-4.604,0.183-8.011,0.593-10.222,1.23c-2.211,0.639-3.315,1.596-3.315,2.871c0,0.639,0.216,1.447,0.649,2.427
		c0.433,0.98,1.287,2.517,2.564,4.61c1.094,1.82,2.792,4.483,5.095,7.989s4.914,7.487,7.832,11.948
		c8.597-10.242,13.999-16.923,16.206-20.041c2.206-3.118,3.309-5.247,3.309-6.387c0-1.321-0.637-2.313-1.909-2.974
		c-1.273-0.66-4.249-1.219-8.93-1.675v-5.332h37.802v5.332c-1.732,0.046-3.156,0.205-4.271,0.479
		c-1.117,0.273-2.404,0.707-3.863,1.299c-2.826,1.276-5.195,2.849-7.109,4.717c-1.914,1.869-4.01,4.057-6.289,6.563
		c-3.374,3.744-6.6,7.385-9.677,10.923s-6.85,7.864-11.318,12.978c5.516,8.285,10.234,15.228,14.155,20.827
		c3.92,5.6,7.637,10.858,11.146,15.773c1.367,2.095,3.133,4.201,5.299,6.32c2.164,2.119,4.408,3.635,6.732,4.546
		c1.094,0.41,2.348,0.798,3.76,1.162c1.412,0.365,3.281,0.615,5.605,0.752V149.828z"/>
	<path d="M385.225,149.828h-53.799v-5.332c1.23-0.091,3.043-0.228,5.436-0.41c2.393-0.182,4.043-0.455,4.955-0.82
		c1.686-0.684,2.838-1.583,3.453-2.7c0.615-1.116,0.922-2.54,0.922-4.272v-68.77c0-1.549-0.297-2.916-0.889-4.102
		c-0.592-1.185-1.754-2.142-3.486-2.871c-1.094-0.455-2.711-0.923-4.854-1.401s-3.988-0.809-5.537-0.991v-5.332h53.799v5.332
		c-1.367,0.137-3.076,0.331-5.127,0.581c-2.051,0.251-3.783,0.604-5.195,1.06c-1.777,0.593-2.963,1.516-3.555,2.769
		c-0.592,1.254-0.889,2.678-0.889,4.272v68.701c0,1.641,0.309,3.042,0.924,4.204s1.787,2.108,3.52,2.837
		c0.957,0.41,2.541,0.81,4.752,1.196c2.209,0.388,4.066,0.627,5.57,0.718V149.828z"/>
	<path d="M484.414,80.58h-5.332c-1.41-4.146-3.67-8.59-6.785-13.33c-3.115-4.739-5.99-7.291-8.629-7.656
		c-1.455-0.182-3.25-0.342-5.387-0.479s-3.979-0.205-5.525-0.205h-3.205v76.084c0,1.641,0.297,3.088,0.889,4.341
		c0.592,1.254,1.754,2.245,3.486,2.974c1.049,0.41,2.678,0.832,4.889,1.265c2.209,0.434,4.09,0.741,5.639,0.923v5.332h-54.072
		v-5.332c1.322-0.137,3.18-0.33,5.572-0.581c2.393-0.25,4.021-0.558,4.887-0.923c1.777-0.729,2.963-1.709,3.555-2.939
		s0.889-2.688,0.889-4.375V58.91h-3.205c-1.547,0-3.389,0.068-5.523,0.205c-2.139,0.137-3.934,0.297-5.389,0.479
		c-2.638,0.365-5.514,2.917-8.628,7.656c-3.114,4.74-5.377,9.184-6.786,13.33h-5.332V52.826h93.994V80.58z"/>
</g>
</svg>
