<?xml version="1.0" encoding="utf-8"?>
<!-- Generator: Adobe Illustrator 13.0.0, SVG Export Plug-In . SVG Version: 6.00 Build 14948)  -->
<!DOCTYPE svg PUBLIC "-//W3C//DTD SVG 1.1 Basic//EN" "http://www.w3.org/Graphics/SVG/1.1/DTD/svg11-basic.dtd">
<svg version="1.1" baseProfile="basic" id="Layer_1"
	 xmlns="http://www.w3.org/2000/svg" xmlns:xlink="http://www.w3.org/1999/xlink" x="0px" y="0px" width="165px" height="70px"
	 viewBox="0 0 165 70" xml:space="preserve">
<g>
	<path fill="#515F8B" d="M11.175,14.307c2.909,0.242,19.938-5.25,28.313-9.375c2.685,3.484,20.598,8.984,28.848-1.933
		C74.169,8.332,92.169,14,105.586,2.165c0,0,20.332,19,41.75,2c0.548,5.101,5.089,10.524,9.082,12.25
		c3.19,1.377,0.596,3.888,3.333,5.667c0.849,0.553-4.199,38.662-5.131,41.167c-20.894,5.517-139.44,5.649-144.867,5.533
		C5.478,60.785,11.175,14.307,11.175,14.307z"/>
	<g>
		<path fill="#363A65" d="M38,6.891c1.545,1.034,4.34,2.102,6.129,2.43c-1.055,1.629-3.646,1.856-5.283,2.52
			c-2.477,1-5.479,1.184-8.189,1.646c-3.843,0.658-8.075,3.045-11.809,1.822C19.197,14.467,32.138,9.555,38,6.891z"/>
		<path fill="#363A65" d="M68.709,4.333c1.545,1.033,5.002,3.337,6.791,3.666c-0.843,1.301-4.25,1.328-7.459,2.625
			c-2.476,1-4.538,0.453-7.25,0.917c-3.842,0.657-4.559,0.016-8.291-1.208C57,10.792,63.916,9.25,68.709,4.333z"/>
		<path fill="#363A65" d="M105.125,3.75c1.545,1.034,5.003,3.338,6.792,3.666c-0.843,1.301-4.249,1.328-7.458,2.625
			c-2.477,1.001-4.539,0.454-7.25,0.918c-3.843,0.656-4.561,0.014-8.292-1.209C93.417,10.208,100.334,8.666,105.125,3.75z"/>
		<path fill="none" stroke="#CAE9FF" d="M64.5,16.5c1.313,0.323,5.104-1.43,6.495-2.057c1.376-0.62,1.978-1.371,3.343-1.947
			c1.082-0.457,1.735-0.896,2.496-1.83"/>
		<path fill="#070000" d="M68.5,6.5c1.885,2.563,14.661,7.133,17.313,8.313"/>
		<path fill="#070000" d="M106.5,6c1.885,2.563,14.724,7.32,17.375,8.5"/>
		<path fill="#070000" d="M104,7.75c1.885,2.563,16.266,7.32,18.917,8.5"/>
		<path fill="none" stroke="#CAE9FF" d="M95.667,15.166c1.916,0.42,4.692-1.057,6.5-1.635c1.985-0.633,5.583-1.096,7.167-2.531"/>
		<path fill="#070000" d="M101.459,9.083c1.885,2.562,13.64,6.444,16.291,7.625"/>
		<path fill="#070000" d="M99.292,10.083c1.885,2.562,15.057,7.153,17.708,8.333"/>
		<path fill="#070000" d="M95.584,10.541c1.885,2.563,18.265,8.945,20.916,10.126"/>
		<path fill="#070000" d="M91.375,10.541c1.885,2.563,18.891,9.863,21.542,11.043"/>
		<path fill="#070000" d="M67.313,7.938c1.887,2.562,15.351,7.383,18,8.563"/>
		<path fill="#070000" d="M65.813,9.125c1.887,2.563,15.351,7.383,18,8.563"/>
		<path fill="#070000" d="M63.875,10.375c1.885,2.563,14.974,7.258,17.625,8.438"/>
		<path fill="none" stroke="#CAE9FF" d="M18.667,21.5c0.936-0.82,3.29-1.348,4.639-1.855c1.983-0.748,3.706-1.268,5.725-1.785
			c1.782-0.459,3.722-0.985,5.46-1.517c0.691-0.212,3.696-0.616,4.012-1.009"/>
		<path fill="#070000" d="M61.625,11c1.885,2.563,14.974,7.258,17.625,8.438"/>
		<path fill="#070000" d="M58.375,11.188C60.26,13.749,73.349,18.445,76,19.625"/>
		<path fill="#070000" d="M39.625,8.375c1.885,2.563,14.349,6.633,17,7.813"/>
		<path fill="#070000" d="M38.375,10.25c1.885,2.563,14.349,6.633,17,7.813"/>
		<path fill="#070000" d="M35.5,11.375c1.885,2.563,14.349,6.633,17,7.813"/>
		<path fill="#070000" d="M32.25,12.25c1.885,2.563,14.911,7.008,17.563,8.188"/>
		<path fill="#070000" d="M29,13c1.885,2.563,14.911,7.008,17.563,8.188"/>
		<path fill="#070000" d="M26,14c1.885,2.563,14.911,7.008,17.563,8.188"/>
		<path fill="#070000" d="M22,14.625c1.885,2.563,14.911,7.008,17.563,8.188"/>
		<path fill="none" stroke="#CAE9FF" d="M16.334,31.166c1.744-1.16,5.168,0.982,7.207,0.326c2.941-0.945,5.768-1.998,8.487-3.574
			c2.55-1.477,5.321-2.605,8.003-3.861c1.116-0.521,2.676-0.566,3.782-1.1c0.204-0.189,0.358-0.416,0.464-0.68
			c1.104-0.361,2.114-0.238,3.226-0.485c1.367-0.306,3.255-0.886,4.497-1.458"/>
		<path fill="none" stroke="#CAE9FF" d="M28.334,40.5c3.268-0.793,6.663,0.863,9.476-0.99c2.04-1.346,4.035-2.557,6.161-3.682
			c2.481-1.313,4.922-2.928,7.22-4.502c2.06-1.414,4.443-0.131,6.714-1.262c2.369-1.179,4.564-2.83,6.891-3.892
			c2.691-1.229,5.59-2.526,8.375-3.34c2.591-0.754,5.607-0.093,8.324-0.668c1.68-0.354,3.731-0.151,5.312-0.894
			c0.898-0.424,1.532-1.184,2.53-1.438"/>
		<path fill="none" stroke="#CAE9FF" d="M46.834,46c0.305-1,1.179-0.779,1.854-1.039c1.647-0.635,2.818-1.133,4.295-2.184
			c1.347-0.961,3.075-2.07,4.55-2.719c0.546-0.24,1.312-0.184,1.811-0.451c0.753-0.408,1.14,1.707,1.854,1.271
			c1.347-0.813,2.762-0.863,4.134-1.893c1.589-1.188,3.074,2.822,4.537,1.535c3.199-2.813,7.519-5.27,11.465-6.723
			c4.868-1.793,10.074-0.084,15.05-1.414c3.646-0.975,6.554-3.408,9.983-4.908c3.586-1.565,7.041-2.514,10.802-3.672
			c1.348-0.416,2.821,0.1,4.083-0.277c0.76-0.225,1.549-0.85,2.259-1.195c1.134-0.553,2.997-1.627,4.325-1.336"/>
		<path fill="none" stroke="#CAE9FF" d="M102.5,42.666c0.445,0.018,0.438-0.545,0.967-0.877c1.545-0.971,3.201,1.217,4.762,0.176
			c1.373-0.918,2.611-1.965,4.107-2.693c1.861-0.906,4.046-0.971,5.867-1.92c3.863-2.016,7.729,0.266,11.42-2.352
			c3.909-2.77,6.638-3.83,11.018-6.018c1.193-0.597,2.229-0.785,3.329-1.57c1.271-0.904,2.146-2.02,3.362-2.939
			c1.354-1.021,2.72-1.344,4.002-2.473"/>
		<path fill="none" stroke="#CAE9FF" d="M112.834,33.5c-0.276-1.305,1.071-1.748,2.041-2.268c1.51-0.813,2.943,1.215,4.461,0.264
			c2.795-1.748,5.941-3.725,8.961-5.008c2.838-1.205,5.68-2.857,8.41-4.108c2.169-0.991,4.947-4.169,7.46-4.715"/>
		<path fill="none" stroke="#CAE9FF" d="M137,37.666c1.02-1.104,3.596,3.631,4.188,2.365c0.682-0.174,1.111-0.729,1.777-1.08
			c1.053-0.557,2.039-0.848,3.048-1.545c2.073-1.432,4.264-0.049,6.487-1.406"/>
		<path fill="#070000" d="M146.167,9c1.885,2.563,6.683,7.32,9.334,8.5"/>
		<path fill="#070000" d="M144,10.167c1.885,2.562,6.683,7.319,9.334,8.5"/>
		<path fill="#070000" d="M141.5,12.166c1.885,2.563,6.683,7.32,9.334,8.5"/>
	</g>
</g>
</svg>
