<?xml version="1.0" encoding="utf-8"?>
<!-- Generator: Adobe Illustrator 13.0.0, SVG Export Plug-In . SVG Version: 6.00 Build 14948)  -->
<!DOCTYPE svg PUBLIC "-//W3C//DTD SVG 1.1 Basic//EN" "http://www.w3.org/Graphics/SVG/1.1/DTD/svg11-basic.dtd">
<svg version="1.1" baseProfile="basic" id="Layer_1"
	 xmlns="http://www.w3.org/2000/svg" xmlns:xlink="http://www.w3.org/1999/xlink" x="0px" y="0px" width="250px" height="250px"
	 viewBox="0 0 250 250" xml:space="preserve">
<g>
	<polygon opacity="0.67" fill="#999999" stroke="#FFFFFF" stroke-width="4" points="74,113 48.5,113 48.5,83.5 5.5,126.5 
		48.5,169.5 48.5,134.5 74,134.5 	"/>
	<polygon opacity="0.67" fill="#999999" stroke="#FFFFFF" stroke-width="4" points="174.5,140 200,140 200,169.5 243,126.5 
		200,83.5 200,118.5 174.5,118.5 	"/>
	<polygon opacity="0.67" fill="#999999" stroke="#FFFFFF" stroke-width="4" points="138.25,76.75 138.25,51.25 167.75,51.25 
		124.75,8.25 81.75,51.25 116.75,51.25 116.75,76.75 	"/>
	<polygon opacity="0.67" fill="#999999" stroke="#FFFFFF" stroke-width="4" points="113.25,177.25 113.25,202.75 83.75,202.75 
		126.75,245.75 169.75,202.75 134.75,202.75 134.75,177.25 	"/>
</g>
</svg>
