<?xml version="1.0" encoding="utf-8"?>
<!-- Generator: Adobe Illustrator 13.0.0, SVG Export Plug-In . SVG Version: 6.00 Build 14948)  -->
<!DOCTYPE svg PUBLIC "-//W3C//DTD SVG 1.1 Basic//EN" "http://www.w3.org/Graphics/SVG/1.1/DTD/svg11-basic.dtd">
<svg version="1.1" baseProfile="basic" id="Layer_1"
	 xmlns="http://www.w3.org/2000/svg" xmlns:xlink="http://www.w3.org/1999/xlink" x="0px" y="0px" width="230px" height="165px"
	 viewBox="0 0 230 165" xml:space="preserve">
<g>
	<path fill="#515F8B" d="M5.148,160.251c6.666-0.019,41.813-48.987,44.987-59.012c3.065-9.677,4.014-22.935,4.014-33.488
		c0-7.334-10.911-22.619-21.125-22.375c-0.03-0.276-19.331-9.681-3.5-26.5c10-10.625,21.223-12.762,30.375-13
		c24-0.625,59.774,39.84,70.223,45.901c10.612,6.16,86.474,99.381,93.527,108.474H5.148z"/>
	<g>
		<path fill="none" stroke="#1B2A5B" stroke-width="3" d="M39.148,35.751c3.277-1.595,20.926,20.167,22,22.451
			c1.521,3.239,5.666,24.989,4.744,32.3c-0.501,3.98-8.2,24.54-9.044,27.706c-0.874,3.289-19.395,25.431-19.421,28.567
			c-0.424,0.072-0.672,0.273-1.029,0.476"/>
		<path fill="none" stroke="#1B2A5B" stroke-width="3" d="M53.398,31.501c1.346-0.533,17.606,22.169,19.468,26.993
			c1.498,3.885,6.532,13.507,7.032,24.257c0.28,6.076-3.693,18.957-4.779,20.806c-1.427,2.428-6.357,18.991-9.696,24.077
			c-2.393,3.644-12.876,21.122-14.522,22.617"/>
		<path fill="none" stroke="#1B2A5B" stroke-width="3" d="M65.898,28.751c2.056,2.875,11.016,16.56,12.311,18.761
			c4.588,7.799,9.617,16.922,10.971,25.938c1.243,8.274,0.63,17.791-0.306,25.976c-1.15,10.061-4.381,19.604-7.471,28.563
			c-1.54,4.466-7.792,24.479-10.005,24.514"/>
		<path fill="none" stroke="#1B2A5B" stroke-width="3" d="M85.148,39.751c3.383,3.054,13.902,19.71,16.196,25.056
			c3.82,8.903,3.346,35.93,3.054,38.65c-0.255,2.354-4.055,20.402-4.987,23.12c-1.438,4.178-8.125,24.985-9.263,25.924"/>
		<path fill="none" stroke="#1B2A5B" stroke-width="3" d="M114.648,56.251c0.015,8.021,4.778,13.791,4.75,21.854
			c-0.012,2.494,1,10.511,1,12.451c0,4.045-0.766,16.014-0.998,18.156c-0.186,1.682-2.014,13.878-2.606,15.98
			c-1.245,4.408-10.936,24.08-11.188,25.271"/>
		<path fill="none" stroke="#1B2A5B" stroke-width="3" d="M133.648,72.001c-1.232,3.092-0.25,20.021-0.25,24.188
			c0,7.438,0,14.873,0,22.312c0,10.499-6.012,19.938-9.5,29.251"/>
		<path fill="none" stroke="#1B2A5B" stroke-width="3" d="M149.148,85.001c0,5.583,0,11.167,0,16.75c0,5.76,1.089,12.879,0.01,18.53
			c-1.093,5.722-2.194,11.134-3.759,16.531c-1.253,4.321-2.938,7.959-5.251,11.688"/>
		<path fill="none" stroke="#1B2A5B" stroke-width="3" d="M166.148,110.001c-0.813,2.183-0.678,6.199-0.973,8.551
			c-0.666,5.33-2.4,22.443-3.578,25.149c-0.664,1.527-2.477,6.803-3.949,7.05"/>
	</g>
	<path fill="none" stroke="#EDE9D2" stroke-width="12" d="M223.148,160.751c-4.268-3.349-7.764-8.022-11.236-12.199
		c-3.893-4.679-8.439-8.421-12.764-12.532c-4.453-4.233-9.057-8.539-12.705-13.487c-1.977-2.679-3.813-5.398-6.044-8.087
		c-2.851-3.432-4.852-7.524-7.626-10.889c-3.302-3.996-6.734-6.873-9.494-11.306c-5.034-8.086-11.952-15.699-17.366-23.175
		c-6.191-8.549-13.734-16.709-21.445-24.323c-3.114-3.075-7.022-5.147-9.985-8.114c-1.804-1.806-3.695-2.535-5.84-3.888
		c-2.311-1.458-4.333-2.99-6.764-4.163c-3.412-1.645-6.604-4.515-9.754-6.346c-2.354-1.37-4.826-2.559-7.457-3.742
		c-5.01-2.254-11.266-4.999-17.006-6.139c-4.399-0.875-8.15-3.983-12.764-3.861"/>
	<g>
		<path fill="none" stroke="#F6EFD9" stroke-width="3" d="M33.148,41.001c-5.063-0.808-13.979-5.453-16.765-9.769
			c-2.165-3.353-5.505-7.285-10.237-5.481"/>
		<path fill="none" stroke="#F6EFD9" stroke-width="3" d="M32.148,33.251c-1.688-0.351-2.854-0.754-4.438-1.506
			c-1.317-0.625-2.68-2.082-4.032-2.292c-0.776-1.018-2.174-2.029-3.015-3.25c-0.846-1.227-1.208-2.805-1.995-3.93
			c-1.564-2.237-4.492-2.752-7.02-3.522"/>
		<path fill="none" stroke="#F6EFD9" stroke-width="3" d="M49.148,34.501c-5.896-2.569-10.447-5.373-15.525-8.976
			c-2.916-2.068-4.479-3.842-5.224-7.274c-0.251-1.155-0.169-2.614-0.813-3.718c-0.754-1.293-2.345-1.467-3.188-2.782"/>
		<path fill="none" stroke="#F6EFD9" stroke-width="3" d="M51.648,26.751c-2.293,0.358-5.93-4.515-7.505-5.994
			c-2.496-2.347-4.92-4.376-6.972-7.062c-3.268-4.278-6.099-7.258-10.273-10.444"/>
		<path fill="none" stroke="#F6EFD9" stroke-width="3" d="M58.898,26.001c-1.174-2.295-4.219-5.405-5.942-8.075
			c-1.378-2.131-2.54-4.441-4.058-6.441c-1.648-2.176-2.942-2.438-5.266-3.728C41.548,6.6,39.57,5.016,37.648,3.501"/>
		<path fill="none" stroke="#EDE9D2" stroke-width="6" d="M55.898,4.126c-0.982-0.521-4.188,0.875-4.517,1.86
			C49.93,6.239,48.737,7.07,47.41,7.613c-1.813,0.742-4.111,0.843-6.008,1.152c-2.914,0.475-6.227,2.773-8.254,4.863
			c-0.634,0.65-1.081,1.041-1.525,1.717c-0.427,0.649-0.558,1.381-0.975,2.029c-0.979,1.529-1.789,3.318-2.761,4.741
			c-0.952,1.397-2.37,2.929-2.99,4.512c-0.59,1.497-0.284,3.052-0.751,4.623c-0.201,0.676-0.673,1.104-0.5,1.875"/>
		<path fill="none" stroke="#EDE9D2" stroke-width="6" d="M58.398,11.001c-0.848,0.242-1.731,1.253-2.469,1.781
			c-0.771,0.556-1.605,1.05-2.282,1.583c-1.2,0.943-2.396,2.38-3.757,3.011c-0.866,0.401-1.642,0.644-2.475,1.119
			c-1.727,0.983-3.43,1.983-4.748,3.524c-1.146,1.342-1.559,3.138-2.896,4.481"/>
		<path fill="#EDE9D2" d="M59.648,6.126c-1.026,0.099-2.026,0.62-3.006,0.868C54.904,7.436,53.166,7.2,51.465,7.74
			c-2.604,0.826-4.685,1.838-6.937,3.518c-1.889,1.408-3.3,3.243-4.913,4.713c-0.878,0.801-3.563,3.047-4.834,2.791
			c-0.037,0.559,0.049,0.627-0.498,0.762c-0.449,2.035-0.678-0.512-0.907,1.717c-0.07,0.006-0.14,0.015-0.209,0.025
			c-0.179,0.534-0.38,1.088-0.271,1.736"/>
		<path fill="#F6EFD9" d="M69.148,16.001c-1.396,0.662-5.789,1.304-5.892,3.333c-0.985,0.245-2.675,1.861-3.458,2.598
			c-1.271,1.195-2.707,2.553-3.525,3.967c-0.83,1.431-0.875,2.932-0.875,4.611c0,1.143-0.356,3.042,0.25,3.991"/>
		<path fill="#F6EFD9" d="M82.648,21.126c-1.185-0.137-2.135,0.722-3.059,1.215c-1.621,0.867-3.104,1.819-4.786,2.416
			c-3.014,1.071-4.839,2.985-6.676,5.519c-1.162,1.602-2.104,3.119-2.979,4.851c-0.604,1.192-1.781,3.797-2.625,4.375"/>
		<path fill="#F6EFD9" d="M97.898,28.876c-0.314,0.531-1.918,1.008-2.717,1.397c-1.085,0.531-2.346,0.744-3.459,1.096
			c-2.556,0.809-4.396,2.201-6.174,4.139c-1.302,1.422-8.22,10.539-5.775,12.368"/>
		<path fill="#F6EFD9" d="M91.273,25.126c-0.381,0.92-2.789,1.166-3.853,1.466c-1.126,0.319-1.861,1.037-2.722,1.522
			c-1.214,0.686-2.269,1.446-3.396,2.268c-1.906,1.388-3.619,3.128-5.434,4.737c-1.349,1.195-2.899,2.133-4.289,3.268
			c-0.635,0.52-2.223,1.682-2.204,2.48c-0.956,0.357-2.022,2.543-2.504,3.533c-0.752,1.554-1.382,3.313-1.601,4.975"/>
		<path fill="#F6EFD9" d="M108.773,36.501c-0.223,0.271-0.499,0.563-0.637,0.854c-0.819-0.166-0.877,0.504-1.387,0.775
			c-0.635,0.337-1.313,0.71-2.008,1.072c-1.864,0.971-4.105,1.438-6.05,2.215c-3.609,1.443-7.097,3.047-9.404,6.229
			c-1.622,2.233-3.021,4.718-4.023,7.096c-0.861,2.045-3.141,4.175-2.866,6.509"/>
		<path fill="#F6EFD9" d="M115.273,43.001c-0.979,1.921-2.271,2.917-3.887,4.378c-1.186,1.071-2.313,2.254-3.257,3.471
			c-0.784,1.014-1.173,1.976-2.095,2.926c-3.482,3.591-8.245,8.229-8.139,13.601"/>
		<path fill="#F6EFD9" d="M125.898,51.501c-0.71,0.366-1.016,1.035-1.596,1.58c-1.021,0.958-2.2,1.872-3.34,2.696
			c-2.104,1.527-3.799,2.576-5.335,4.563c-1.207,1.562-2.54,2.943-3.729,4.505c-1.534,2.018-4.153,3.764-5.003,6.029"/>
		<path fill="#F6EFD9" d="M133.273,56.001c-2.2,0.696-4.249,2.479-6.309,3.894c-2.357,1.619-4.541,3.502-6.54,5.47
			c-1.959,1.928-3.414,4.335-5.162,6.395c-0.925,1.089-3.082,3.339-2.989,4.868"/>
		<path fill="#F6EFD9" d="M138.773,65.126c-0.182,0.433-0.787,0.76-1.241,1.011c-1.314,0.725-2.688,1.575-4.052,2.377
			c-1.188,0.697-2.354,1.297-3.479,2.105c-0.529,0.381-1.027,0.773-1.538,1.173c-0.748,0.585-0.656,0.681-1.115,1.438
			c-0.998,1.643-2.445,3.195-3.464,4.621c-1.06,1.487-2.881,4.412-4.36,5.274"/>
		<path fill="#F6EFD9" d="M144.648,72.751c-1.07,0.444-1.871,1.181-2.743,1.935c-1.915,1.66-3.868,2.977-5.958,4.312
			c-1.484,0.946-2.994,2.444-4.271,3.735c-1.276,1.295-2.676,2.934-2.685,4.881c-0.931,0.07-1.044,1.557-1.595,2.271
			c-0.757,0.976-1.447,2.222-2.176,3.126c-0.679,0.846-1.236,1.323-1.778,2.396c-0.452,0.895-0.47,1.925-0.921,2.846"/>
		<path fill="#F6EFD9" d="M151.398,80.251c-1.986,1.644-4.92,2.241-7.015,4.063c-2.732,2.377-6.233,3.928-8.607,6.867
			c-2.124,2.633-3.528,6.282-5.429,8.947c-1.399,1.969-2.288,4.045-3.574,6.122"/>
		<path fill="#F6EFD9" d="M160.148,89.001c-1.478,0.582-2.828,1.437-4.176,1.959c-0.901,0.353-1.767,0.604-2.68,0.896
			c-0.677,0.22-1.146,0.813-1.875,0.916c-0.925,0.758-2.338,1.563-3.396,2.42c-1.64,1.324-3.082,2.875-4.396,4.559
			c-2.291,2.938-3.396,6.357-4.229,10.001"/>
		<path fill="#F6EFD9" d="M162.898,98.001c-0.112,2.05-2.92,3.642-4.359,4.707c-2.559,1.894-5.356,2.916-7.85,4.908
			c-3.601,2.876-9.341,4.864-11.041,9.51"/>
		<path fill="#F6EFD9" d="M167.273,102.501c-1.222,2.485-3.443,3.515-5.475,5.258c-1.055,0.906-2.32,1.54-3.374,2.423
			c-1.092,0.916-2.067,2.053-3.056,3.076c-1.789,1.854-3.379,4.654-4.239,7.063c-0.344,0.964-0.164,1.924-0.373,2.93
			c-0.169,0.813-0.832,1.684-1.108,2.503"/>
		<path fill="#F6EFD9" d="M177.898,112.501c-1.431,0.33-3.063,1.386-4.157,2.351c-1.129,0.994-2.296,2.104-3.461,3.183
			c-1.391,1.28-3.091,1.825-4.507,3.063c-0.941,0.82-1.979,1.541-3.09,2.074c-0.908,0.438-2.188,0.74-2.802,1.698
			c-0.383,0.597-0.118,1.508-0.382,2.132c-0.251,0.591-0.739,1.021-0.979,1.625"/>
		<path fill="#F6EFD9" d="M184.773,122.751c-1.768-0.828-6.458,2.562-8.031,3.624c-1.897,1.282-3.212,2.7-4.479,4.529
			c-0.979,1.414-1.726,2.781-2.872,3.959c-0.744,0.766-1.83,1.865-2.49,2.763"/>
		<path fill="#F6EFD9" d="M192.898,134.001c-0.6,0.161-1.166,0.798-1.646,1.119c-0.883,0.594-1.898,1.139-2.793,1.81
			c-1.877,1.407-4.294,2.971-5.646,4.939c-2.872,4.188-4.977,8.646-7.916,12.757"/>
		<path fill="#F6EFD9" d="M202.023,143.501c-1.692,1.217-3.875,2.007-5.606,3.368c-1.408,1.107-2.32,2.324-2.914,3.745
			c-0.355,0.854-0.833,2.043-1.345,2.887c-0.518,0.851-1.041,2.306-1.885,2.875"/>
		<path fill="none" stroke="#F6EFD9" stroke-width="3" d="M61.898,12.251c-2.765,8.011,3.402,12.438,9.5,14.25
			c3.889,1.156,8.042,4.101,11.277,6.735c4.005,3.262,7.825,7.303,10.979,11.486c2.035,2.7,3.387,4.868,6.475,6.028
			c3.522,1.323,7.771,2.858,11.281,4.763c5.89,3.196,8.328,10.377,14.479,13.301c3.103,1.473,4.768,2.477,6.32,5.369
			c1.108,2.063,0.925,4.475,1.932,6.607c0.98,2.079,2.163,2.141,4.213,2.753c2.723,0.813,6.405,1.978,8.545,3.96
			c3.148,2.921,4.979,7.182,8.549,9.821c2.641,1.955,3.746,3.896,5.951,6.368c2.11,2.371,5.233,3.058,7.389,5.301
			c2.402,2.503,3.973,6.109,5.923,8.982c1.165,1.717,3.556,5.776,5.404,6.322c1.171,1.956,6.132,5.581,8.534,5.45"/>
		<path fill="none" stroke="#F6EFD9" stroke-width="3" d="M80.148,21.251c-1.12,2.46,1.155,5.535,2.063,7.61
			c0.912,2.094,2.001,4.258,2.916,6.15c0.514,1.063,1.274,3.033,2.278,3.788c0.737,0.558,2.552,0.726,3.486,0.957
			c1.687,0.414,3.063,0.854,4.762,1.452c1.729,0.607,2.678,1.414,4.194,2.121c1.162,0.541,1.877,1.004,3.274,0.963
			c0.021,0.139,0.033,0.277,0.041,0.416c4.211,0.191,9.688,2.646,12.725,5.533c2.576,2.447,5.372,5.066,8.21,7.213
			c1.166,0.883,1.99,0.952,2.866,2.24c0.798,1.174,0.215,1.75,0.729,3.02c1.79,4.444,5.423,6.503,9.437,8.246
			c2.107,0.914,4.438,1.443,6.457,2.541c1.929,1.048,2.468,2.686,4.063,3.999"/>
		<path fill="none" stroke="#F6EFD9" stroke-width="3" d="M25.148,28.251c0.927,2.983,1.25,5.104,1.25,8.513
			c0,2.495,0,4.991,0,7.487"/>
		<path fill="none" stroke="#F6EFD9" stroke-width="3" d="M32.148,16.751c0,4.113,1.515,7.347,1.5,11.437
			c-0.014,3.117,0.789,7.871-0.25,10.563"/>
		<path fill="none" stroke="#F6EFD9" stroke-width="3" d="M43.398,7.751c0.042,4.909,1.5,8.851,1.5,13.743
			c0,4.745,0.256,9.55-1,14.007"/>
		<path fill="none" stroke="#F6EFD9" stroke-width="3" d="M53.648,12.751c2.348,1.442,4.011,14.065,1.25,15.5"/>
		<path fill="none" stroke="#F6EFD9" stroke-width="3" d="M36.648,16.001c3.524,7.007,4.096,17.082,1.5,24.75"/>
		<path fill="none" stroke="#F6EFD9" stroke-width="3" d="M26.148,23.751c-0.068,3.021,0.75,5.576,0.75,8.75"/>
		<path fill="none" stroke="#F6EFD9" stroke-width="3" d="M20.398,32.251c0.313,0.849,0.383,1.827,0.204,2.735
			c-0.927,0.354-1.088,1.438-1.034,2.42c-2.375,0.595-2.232,4.59-3.17,6.344"/>
		<path fill="none" stroke="#F6EFD9" stroke-width="3" d="M51.148,49.751c1.104,0.353,2.132,0.892,2.5,2"/>
		<path fill="none" stroke="#F6EFD9" stroke-width="3" d="M62.648,81.501c0-0.278,0,1.356,0,1.75"/>
		<path fill="none" stroke="#F6EFD9" stroke-width="3" d="M59.398,105.001c-1.916,0.692-4.145,2.301-5.5,3.75"/>
		<path fill="none" stroke="#F6EFD9" stroke-width="3" d="M36.898,132.251c-0.363,0.244-0.638,0.599-0.75,1"/>
		<path fill="none" stroke="#F6EFD9" stroke-width="3" d="M65.148,131.501c-0.396,0.661-0.901,1.253-1.5,1.75"/>
		<path fill="none" stroke="#F6EFD9" stroke-width="3" d="M97.148,140.751c-0.138,0.628-0.381,1.205-0.75,1.75"/>
		<path fill="none" stroke="#F6EFD9" stroke-width="3" d="M109.648,121.751c0.878,1.403,1.18,2.694,1.75,4"/>
		<path fill="none" stroke="#F6EFD9" stroke-width="3" d="M130.648,119.251c0.66,0.606,1.114,1.401,1.25,2.25"/>
		<path fill="none" stroke="#F6EFD9" stroke-width="3" d="M100.398,92.251c0.367,1.888-1.609,3.067-2.75,4"/>
		<path fill="none" stroke="#F6EFD9" stroke-width="3" d="M101.648,113.751c0.106,0.429,0.009,1.076-0.014,1.519
			c-1.051,0.071-1.807,0.765-2.236,1.731"/>
		<path fill="none" stroke="#F6EFD9" stroke-width="3" d="M84.148,106.751c-1.398,0.05-3.579,1.349-4.5,2.25"/>
		<path fill="none" stroke="#F6EFD9" stroke-width="3" d="M76.898,77.501c0.087,0.458,0.254,0.868,0.5,1.25"/>
		<path fill="none" stroke="#F6EFD9" stroke-width="3" d="M83.898,65.751c0.667,1.188,1.774,2.149,2.25,3.5"/>
		<path fill="none" stroke="#F6EFD9" stroke-width="3" d="M106.898,74.001c0.083,0.083,0.167,0.167,0.25,0.25"/>
		<path fill="none" stroke="#F6EFD9" stroke-width="3" d="M145.648,144.251c-0.475,0.287-0.752,0.724-0.75,1.25"/>
		<path fill="none" stroke="#F6EFD9" stroke-width="3" d="M169.398,154.751c0.004,1.245-0.183,2.617,0.25,3.75"/>
		<path fill="none" stroke="#F6EFD9" stroke-width="3" d="M119.148,148.501c-0.351,1.054-0.979,1.781-2,2.25"/>
	</g>
</g>
</svg>
