<?xml version="1.0" encoding="utf-8"?>
<!-- Generator: Adobe Illustrator 13.0.0, SVG Export Plug-In . SVG Version: 6.00 Build 14948)  -->
<!DOCTYPE svg PUBLIC "-//W3C//DTD SVG 1.1 Basic//EN" "http://www.w3.org/Graphics/SVG/1.1/DTD/svg11-basic.dtd">
<svg version="1.1" baseProfile="basic" id="Layer_1"
	 xmlns="http://www.w3.org/2000/svg" xmlns:xlink="http://www.w3.org/1999/xlink" x="0px" y="0px" width="600px" height="200px"
	 viewBox="0 0 600 200" xml:space="preserve">
<path fill="#999999" stroke="#000000" stroke-width="10" d="M582.188,181.111c0,6.188-5.16,11.203-11.526,11.203H27.15
	c-6.367,0-11.527-5.017-11.527-11.203V23.928c0-6.188,5.161-11.204,11.527-11.204h543.51c6.366,0,11.527,5.016,11.527,11.204
	V181.111L582.188,181.111z"/>
<rect x="93.95" y="43.989" fill="none" width="467.347" height="137.755"/>
<g>
	<path d="M189.584,77.094c0,5.469-1.128,10.175-3.384,14.116c-2.256,3.942-5.366,7.144-9.331,9.604
		c-4.102,2.553-8.784,4.398-14.048,5.537c-5.264,1.14-11.177,1.709-17.739,1.709h-7.93v27.275c0,1.641,0.308,3.065,0.923,4.272
		c0.615,1.208,1.788,2.177,3.521,2.905c0.911,0.365,2.393,0.752,4.443,1.162s3.782,0.684,5.195,0.82v5.332H98.667v-5.332
		c1.321-0.137,3.076-0.33,5.264-0.581c2.188-0.25,3.714-0.558,4.58-0.923c1.777-0.729,2.95-1.617,3.521-2.666
		c0.569-1.048,0.854-2.506,0.854-4.375V67.523c0-1.595-0.273-2.974-0.82-4.136s-1.732-2.13-3.555-2.905
		c-1.276-0.547-2.974-1.036-5.093-1.47c-2.119-0.433-3.703-0.718-4.751-0.854v-5.332h53.525c12.532,0,21.897,1.994,28.096,5.981
		C186.485,62.796,189.584,68.891,189.584,77.094z M162.924,80.58c0-7.291-1.47-12.703-4.409-16.235
		c-2.939-3.531-8.169-5.298-15.688-5.298h-5.674v42.588h2.871c7.474,0,13.159-1.72,17.056-5.161
		C160.976,93.033,162.924,87.735,162.924,80.58z"/>
	<path d="M288.09,118.725l-1.914,31.104h-89.346v-5.332c1.595-0.137,3.463-0.353,5.605-0.649c2.142-0.296,3.555-0.581,4.238-0.854
		c1.641-0.638,2.779-1.526,3.418-2.666c0.638-1.139,0.957-2.598,0.957-4.375V67.523c0-1.641-0.251-2.996-0.752-4.067
		c-0.502-1.07-1.709-2.039-3.623-2.905c-1.413-0.638-3.11-1.15-5.093-1.538c-1.982-0.387-3.566-0.672-4.751-0.854v-5.332h53.252
		v5.332c-1.459,0.137-3.179,0.331-5.161,0.581c-1.982,0.251-3.703,0.604-5.161,1.06c-1.777,0.593-2.963,1.516-3.555,2.769
		c-0.593,1.254-0.889,2.678-0.889,4.272v63.779c0,3.008,0.205,5.378,0.615,7.109c0.41,1.732,1.207,3.008,2.393,3.828
		c1.185,0.866,2.837,1.425,4.956,1.675c2.119,0.251,5.047,0.376,8.784,0.376c3.646,0,7.188-0.216,10.63-0.649
		c3.44-0.433,5.913-1.378,7.417-2.837c2.324-2.324,4.705-5.594,7.144-9.81c2.438-4.215,4.386-8.077,5.845-11.587H288.09z"/>
	<path d="M398.08,149.828h-52.842v-5.332c2.456-0.182,5.344-0.626,8.665-1.333c3.319-0.706,4.98-1.583,4.98-2.632
		c0-0.364-0.034-0.774-0.103-1.23c-0.068-0.455-0.263-1.07-0.581-1.846l-8.278-20.098h-33.486c-0.771,1.869-1.62,4.057-2.549,6.563
		c-0.93,2.507-1.732,4.74-2.412,6.699c-0.861,2.553-1.371,4.398-1.531,5.537c-0.16,1.14-0.238,1.938-0.238,2.393
		c0,1.459,1.104,2.7,3.313,3.726c2.208,1.025,5.885,1.767,11.029,2.222v5.332h-39.785v-5.332c1.504-0.091,3.202-0.33,5.093-0.718
		c1.891-0.387,3.384-0.923,4.478-1.606c1.868-1.094,3.452-2.438,4.751-4.033c1.299-1.595,2.381-3.486,3.247-5.674
		c5.287-12.806,10.584-25.635,15.895-38.486c5.309-12.852,11.176-27.024,17.602-42.52h13.672
		c8.932,21.967,15.928,39.33,20.986,52.09c5.059,12.761,9.365,23.334,12.92,31.719c0.592,1.367,1.344,2.609,2.256,3.726
		c0.912,1.117,2.211,2.177,3.896,3.179c1.275,0.729,2.758,1.276,4.443,1.641c1.686,0.365,3.213,0.593,4.58,0.684V149.828z
		 M347.109,110.59L333.07,75.526l-13.835,35.063H347.109z"/>
	<path d="M501.303,58.158c-1.639,0.183-3.139,0.479-4.504,0.889s-2.662,0.98-3.891,1.709c-1.957,1.094-3.697,2.495-5.221,4.204
		c-1.525,1.709-3.016,3.612-4.471,5.708c-2.959,4.33-6.064,9.035-9.316,14.116c-3.254,5.082-6.791,10.676-10.613,16.782
		c-2.504,3.874-4.039,6.848-4.607,8.921c-0.568,2.074-0.854,5.663-0.854,10.767v13.74c0,1.641,0.309,3.076,0.924,4.307
		s1.787,2.233,3.52,3.008c0.775,0.319,2.416,0.741,4.922,1.265c2.506,0.524,4.352,0.832,5.537,0.923v5.332h-54.072v-5.332
		c1.275-0.091,3.111-0.273,5.504-0.547s4.066-0.592,5.023-0.957c1.686-0.729,2.838-1.697,3.453-2.905
		c0.615-1.207,0.922-2.677,0.922-4.409v-17.09c0-1.504-0.023-2.825-0.068-3.965c-0.045-1.139-0.205-2.096-0.479-2.871
		c-0.318-0.865-0.865-1.971-1.641-3.315c-0.775-1.344-1.777-3.087-3.008-5.229c-3.51-6.152-6.904-11.985-10.186-17.5
		c-3.281-5.514-6.402-10.687-9.365-15.518c-1.549-2.506-3.109-4.522-4.682-6.05c-1.572-1.526-3.18-2.769-4.82-3.726
		c-1.23-0.684-2.723-1.207-4.477-1.572c-1.754-0.364-3.338-0.592-4.752-0.684v-5.332h55.576v5.332
		c-5.088,0.137-8.518,0.49-10.291,1.06c-1.773,0.57-2.66,1.356-2.66,2.358c0,0.502,0.33,1.504,0.99,3.008s1.834,3.827,3.52,6.969
		c1.549,2.959,3.814,7.034,6.797,12.225s6.57,11.269,10.762,18.234c8.645-13.705,14.582-23.278,17.813-28.72
		c3.23-5.44,4.846-8.776,4.846-10.007c0-1.549-0.949-2.734-2.85-3.555s-4.98-1.344-9.238-1.572v-5.332h35.957V58.158z"/>
</g>
</svg>
