<?xml version="1.0" encoding="utf-8"?>
<!-- Generator: Adobe Illustrator 13.0.0, SVG Export Plug-In . SVG Version: 6.00 Build 14948)  -->
<!DOCTYPE svg PUBLIC "-//W3C//DTD SVG 1.1 Basic//EN" "http://www.w3.org/Graphics/SVG/1.1/DTD/svg11-basic.dtd">
<svg version="1.1" baseProfile="basic" id="Layer_1"
	 xmlns="http://www.w3.org/2000/svg" xmlns:xlink="http://www.w3.org/1999/xlink" x="0px" y="0px" width="796.301px"
	 height="213.898px" viewBox="0 0 796.301 213.898" xml:space="preserve">
<g>
	<path fill-rule="evenodd" clip-rule="evenodd" d="M0,197.632c3.247,1.684,4.926-1.512,7.442-2.29
		C21.218,200.365,201.71,78.167,213.891,76.75c2.095-0.243,5.946-0.716,6.87-0.572c3.16,0.491,6.397,2.854,10.304-1.145
		c-0.48,0.664-0.755,1.534-0.572,2.861c13.838,6.663,14.575-9.222,24.043-12.021c1.618,0.291,0.569,3.248,2.29,3.436
		c1.686-2.704,2.104-6.674,5.152-8.015c0.109,0.649,0.575,0.318,0.573,0c2.753-0.845,0.527,3.289,2.862,2.862
		c2.898-0.346,1.502-4.985,2.862-6.87c1.455-1.167,3.273,0.966,3.435,2.863c1.539,0.394,1.106-1.184,1.717-1.718
		c2.259,1.308,6.169,3.571,4.007,7.441c1.485,1.766,2.866,1.035,3.435,2.862c4.294-5.398,16.422-5.722,14.884,5.152
		c4.751-1.163,7.66-4.171,9.159-8.587c7.304-0.901,14.969-1.44,14.311-10.304c8.985-3.017,19.081-4.29,30.34-5.725
		c19.08-2.43,39.733-5.688,54.956-10.877c2.347-0.459-0.297-2.356,1.145-3.435c7.17-1.214,7.825-9.875,16.028-11.449
		c1.608,4.116-0.981,12.432,2.862,14.312c2.711,0.421,1.844-2.736,3.436-3.435c1.404,0.504,3.301,0.515,3.434,2.289
		c1.691-0.788,3.764-1.198,5.153-2.289c-2.056-11.788-5.049-20.493,2.862-27.479c2.453-2.166,6.461-5.903,7.441-6.297
		c6.775-2.716,16.199,3.993,16.029,12.022c-0.037,1.741-1.736,3.393-2.29,5.724c-1.473,6.202,0.585,12.547-2.29,17.746
		c2.971,1.63,5.535,2.806,6.297,6.298c0.586,2.688,0.35,8.591,0,8.014c1.618,2.67,5.346,2.276,8.014,2.862
		c0.87,4.182,1.262,4.916,1.719,8.588c0.533-2.329,2.202-3.522,2.289-6.298c0.792,0.926,2.723,0.711,2.29,2.862
		c3.284-2.468,7.966,6.031,10.876,4.579c1.498,1.557,2.309,3.799,4.008,5.152c1.529,0.002,1.244-1.81,2.863-1.718
		c2.691,1.508,3.963,4.434,5.723,6.87c1.27,0.315,0.816-1.093,1.719-1.146c4.666,1.501,6.387,6.82,8.586,9.16
		c1.877-3.021,3.213,2.149,4.008-0.572c1.68,0.486-0.744,1.44,0,2.861c2.945,1.063,3.602,4.413,5.152,6.87
		c7.23,1.687,12.184,6.358,20.035,4.58c1.242-0.097,0.26,2.03,0.572,2.861c3.85,0.604,7.182,1.487,10.305,4.007
		c2.398,0.683,1.021-2.412,2.289-2.861c3.729-0.293,5.672,1.199,6.299,4.007c1.486,0.343,2.059-0.229,1.717-1.717
		c1.377,0.582,5.465,3.459,5.725,0c1.178,1.11,1.111,3.468,2.289,4.579c1.875-0.416,1.57-3.01,4.008-2.862
		c1.508-0.172,1.879,0.793,1.717,2.29c2.949-0.56,4.77-0.317,5.725,2.289c9.137-1.59,16.414,4.585,24.043,3.436
		c0,0.954,0,1.908,0,2.862c2.215,0.496,2.479-0.958,3.436-1.718c1.289,0.238-0.086,3.139,1.717,2.862
		c1.84,0.122,1.393-2.041,2.289-2.862c3.191,5.026,11.014-0.864,12.596,5.152c2.039,0.131,2.992-0.823,2.861-2.862
		c0.635,1.274,1.01,2.807,2.863,2.862c1.51,0.174,1.475-1.195,1.717-2.29c1.555-0.409-0.41,2.699,1.145,2.29
		c2.967,0.486,2.197,3.506,4.008,2.836c3.166,1.672,4.496,0.567,6.869-1.146c2.283,1.854,3.338,1.448,6.297,2.29
		c4.744-6.632,11.838,4.938,19.463,6.543c0.988,0.348-0.043,2.716,1.145,2.863c3.643-1.32,6.072,5.554,8.016,2.535
		c2.611,0.248,3.844,6.107,6.869,4.28c0.049,0.906-0.275,2.185,0.572,2.291c2.779,0.446,3.529-4.486,5.725-1.146
		c2.412,0.122,2.018,2.924,3.436,2.052c3.484-1.063,4.148,3.901,5.725,5.997c1.922,0.588,0.891,0.571,1.145-0.511
		c3.779,0.037,5.869,1.765,8.014,3.436c2.15,0.433,1.938-1.498,2.863-2.291c1.5,0.407,0.549,4.836,2.289,5.003
		c5.049-2.346,6.906,1.087,11.449,3.707c1.51,0.175,1.477-1.194,1.717-2.289c1.008,0.138,1.307,0.985,1.146,2.289
		c3.557-3.628,45.654,35.216,48.307,30.208c1.734-0.019,0.555,3.664,2.291,3.646c2.627-4.528,9.816,5.139,13.738,7.839
		c0,45.224,0-42.015,0,3.209c-195.398,0-600.903,0-796.301,0C0,146.08,0,252.587,0,197.632z"/>
</g>
</svg>
