<?xml version="1.0" encoding="utf-8"?>
<!-- Generator: Adobe Illustrator 13.0.0, SVG Export Plug-In . SVG Version: 6.00 Build 14948)  -->
<!DOCTYPE svg PUBLIC "-//W3C//DTD SVG 1.1 Basic//EN" "http://www.w3.org/Graphics/SVG/1.1/DTD/svg11-basic.dtd">
<svg version="1.1" baseProfile="basic" id="Layer_1"
	 xmlns="http://www.w3.org/2000/svg" xmlns:xlink="http://www.w3.org/1999/xlink" x="0px" y="0px" width="765.164px"
	 height="144.337px" viewBox="0 0 765.164 144.337" xml:space="preserve">
<g>
	<path fill="#111111" d="M765.164,129.98c0,49.112,0-47.574,0,1.537c-231.05,0-534.114,0-765.164,0
		c0-58.041,0,49.916,0-8.124c29.914-8.378,127.977-69.648,155.733-82.423c25.813-11.88,61.125-29.955,87.062-35.16
		c24.857-4.986,56.673-3.348,83.712-3.348c28.291,0,59.793-4.151,85.387-1.675c27.063,2.619,58.548,12.336,82.04,21.766
		c44.555,17.885,82.448,47.148,127.243,60.273C662.584,94.959,720.889,124.289,765.164,129.98z"/>
</g>
</svg>
